<svg width="45" height="45" viewBox="0 0 45 45" fill="none" xmlns="http://www.w3.org/2000/svg">
<g clip-path="url(#clip0_6_781)">
<rect width="45" height="45" rx="22.5" fill="#019E3F"/>
<path d="M29 21.9375C29 23.5288 28.3679 25.0549 27.2426 26.1801C26.1174 27.3054 24.5913 27.9375 23 27.9375C21.4087 27.9375 19.8826 27.3054 18.7574 26.1801C17.6321 25.0549 17 23.5288 17 21.9375C17 20.3462 17.6321 18.8201 18.7574 17.6949C19.8826 16.5696 21.4087 15.9375 23 15.9375C24.5913 15.9375 26.1174 16.5696 27.2426 17.6949C28.3679 18.8201 29 20.3462 29 21.9375ZM29 21.9375H25" stroke="white" stroke-width="3" stroke-linecap="round"/>
<path d="M23 34.3125C29.6274 34.3125 35 28.9399 35 22.3125C35 15.6851 29.6274 10.3125 23 10.3125C16.3726 10.3125 11 15.6851 11 22.3125C11 28.9399 16.3726 34.3125 23 34.3125Z" stroke="white" stroke-width="3"/>
<path d="M32 17C34.2091 17 36 15.3211 36 13.25C36 11.1789 34.2091 9.5 32 9.5C29.7909 9.5 28 11.1789 28 13.25C28 15.3211 29.7909 17 32 17Z" fill="#4ADE80"/>
</g>
<defs>
<clipPath id="clip0_6_781">
<rect width="45" height="45" fill="white"/>
</clipPath>
</defs>
</svg>
