<svg width="320" height="568" viewBox="0 0 320 568" fill="none" xmlns="http://www.w3.org/2000/svg">
<g clip-path="url(#clip0_1_810)">
<rect width="320" height="568" fill="#E6F4EA"/>
<g opacity="0.3">
<path d="M88.3184 621.478L-54.6073 481.577Z" fill="black"/>
<path d="M88.3184 621.478L-54.6073 481.577" stroke="#019E3F" stroke-width="3" stroke-dasharray="8 4"/>
</g>
<g opacity="0.3">
<path d="M105.318 599.478L-37.6073 459.577Z" fill="black"/>
<path d="M105.318 599.478L-37.6073 459.577" stroke="#D81C22" stroke-width="3" stroke-dasharray="8 4"/>
</g>
<g opacity="0.3">
<path d="M378.319 113.477L235.394 -26.4243Z" fill="black"/>
<path d="M378.319 113.477L235.394 -26.4243" stroke="#019E3F" stroke-width="3" stroke-dasharray="8 4"/>
</g>
<g opacity="0.3">
<path d="M343.926 119.901L201 -19.9999Z" fill="black"/>
<path d="M343.926 119.901L201 -19.9999" stroke="#D81C22" stroke-width="3" stroke-dasharray="8 4"/>
</g>
<g opacity="0.3">
<path d="M395.319 91.4767L252.394 -48.4243Z" fill="black"/>
<path d="M395.319 91.4767L252.394 -48.4243" stroke="#D81C22" stroke-width="3" stroke-dasharray="8 4"/>
</g>
<g opacity="0.9">
<path opacity="0.1" d="M10.1029 -32.2267C-14.7831 -32.2267 -34.9572 -12.8091 -34.9572 11.1438C-34.9572 35.0967 -14.7831 54.5144 10.1029 54.5144C34.989 54.5144 55.1631 35.0967 55.1631 11.1438C55.1631 -12.8091 34.989 -32.2267 10.1029 -32.2267Z" stroke="#34A853" stroke-width="2"/>
<path opacity="0.1" d="M10.1029 -32.2267C-14.7831 -32.2267 -34.9572 -12.8091 -34.9572 11.1438C-34.9572 35.0967 -14.7831 54.5144 10.1029 54.5144C34.989 54.5144 55.1631 35.0967 55.1631 11.1438C55.1631 -12.8091 34.989 -32.2267 10.1029 -32.2267Z" stroke="#34A853" stroke-width="2"/>
<path opacity="0.2" d="M10.1025 -17.7699C-6.48823 -17.7699 -19.9376 -4.82482 -19.9376 11.1438C-19.9376 27.1124 -6.48823 40.0575 10.1025 40.0575C26.6932 40.0575 40.1426 27.1124 40.1426 11.1438C40.1426 -4.82482 26.6932 -17.7699 10.1025 -17.7699Z" stroke="#34A853" stroke-width="2"/>
<path opacity="0.3" d="M10.103 -3.313C1.80764 -3.313 -4.91706 3.15955 -4.91706 11.1439C-4.91706 19.1282 1.80764 25.6007 10.103 25.6007C18.3983 25.6007 25.123 19.1282 25.123 11.1439C25.123 3.15955 18.3983 -3.313 10.103 -3.313Z" fill="#34A853"/>
<path opacity="0.8" d="M10.1033 3.91546C5.95558 3.91546 2.59323 7.15174 2.59323 11.1439C2.59323 15.136 5.95558 18.3723 10.1033 18.3723C14.2509 18.3723 17.6133 15.136 17.6133 11.1439C17.6133 7.15174 14.2509 3.91546 10.1033 3.91546Z" fill="#34A853"/>
</g>
<g opacity="0.9">
<path opacity="0.1" d="M317.103 524.773C292.217 524.773 272.043 544.191 272.043 568.144C272.043 592.097 292.217 611.514 317.103 611.514C341.989 611.514 362.163 592.097 362.163 568.144C362.163 544.191 341.989 524.773 317.103 524.773Z" stroke="#D81C22" stroke-width="2"/>
<path opacity="0.2" d="M317.102 539.23C300.512 539.23 287.062 552.175 287.062 568.144C287.062 584.112 300.512 597.057 317.102 597.057C333.693 597.057 347.143 584.112 347.143 568.144C347.143 552.175 333.693 539.23 317.102 539.23Z" stroke="#D81C22" stroke-width="2"/>
<path opacity="0.3" d="M317.103 553.687C308.808 553.687 302.083 560.16 302.083 568.144C302.083 576.128 308.808 582.601 317.103 582.601C325.398 582.601 332.123 576.128 332.123 568.144C332.123 560.16 325.398 553.687 317.103 553.687Z" fill="#D81C22"/>
<path opacity="0.8" d="M317.103 560.915C312.956 560.915 309.593 564.152 309.593 568.144C309.593 572.136 312.956 575.372 317.103 575.372C321.251 575.372 324.613 572.136 324.613 568.144C324.613 564.152 321.251 560.915 317.103 560.915Z" fill="#D81C22"/>
</g>
</g>
<defs>
<clipPath id="clip0_1_810">
<rect width="320" height="568" fill="white"/>
</clipPath>
</defs>
</svg>
