<svg width="320" height="568" viewBox="0 0 320 568" fill="none" xmlns="http://www.w3.org/2000/svg">
<g clip-path="url(#clip0_1_894)">
<rect width="320" height="568" fill="#E6F4EA"/>
<g opacity="0.3">
<path d="M30 450V650Z" fill="black"/>
<path d="M30 450V650" stroke="#D81C22" stroke-width="3" stroke-dasharray="8 4"/>
</g>
<path opacity="0.4" d="M30 458C34.4183 458 38 454.418 38 450C38 445.581 34.4183 442 30 442C25.5817 442 22 445.581 22 450C22 454.418 25.5817 458 30 458Z" fill="#D81C22"/>
<path opacity="0.8" d="M30 454C32.2091 454 34 452.209 34 450C34 447.791 32.2091 446 30 446C27.7909 446 26 447.791 26 450C26 452.209 27.7909 454 30 454Z" fill="#D81C22"/>
<path opacity="0.2" d="M30 462C36.6274 462 42 456.627 42 450C42 443.372 36.6274 438 30 438C23.3726 438 18 443.372 18 450C18 456.627 23.3726 462 30 462Z" stroke="#D81C22" stroke-width="2"/>
<g opacity="0.3">
<path d="M54 474V674Z" fill="black"/>
<path d="M54 474V674" stroke="#34A853" stroke-width="3" stroke-dasharray="8 4"/>
</g>
<path opacity="0.4" d="M61.5 474C61.5 478.142 58.1421 481.5 54 481.5C49.8579 481.5 46.5 478.142 46.5 474C46.5 469.858 49.8579 466.5 54 466.5C58.1421 466.5 61.5 469.858 61.5 474Z" fill="#34A853" stroke="#34A853"/>
<path opacity="0.8" d="M57.5 474C57.5 475.933 55.933 477.5 54 477.5C52.067 477.5 50.5 475.933 50.5 474C50.5 472.067 52.067 470.5 54 470.5C55.933 470.5 57.5 472.067 57.5 474Z" fill="#34A853" stroke="#BAE0CC"/>
<path opacity="0.2" d="M54 486C60.6274 486 66 480.627 66 474C66 467.372 60.6274 462 54 462C47.3726 462 42 467.372 42 474C42 480.627 47.3726 486 54 486Z" stroke="#34A853" stroke-width="2"/>
<g opacity="0.3">
<path d="M78 498V698Z" fill="black"/>
<path d="M78 498V698" stroke="#D81C22" stroke-width="3" stroke-dasharray="8 4"/>
</g>
<path opacity="0.4" d="M85.5 498C85.5 502.142 82.1421 505.5 78 505.5C73.8579 505.5 70.5 502.142 70.5 498C70.5 493.858 73.8579 490.5 78 490.5C82.1421 490.5 85.5 493.858 85.5 498Z" fill="#D81C22" stroke="#D81C22"/>
<path opacity="0.8" d="M81.5 498C81.5 499.933 79.933 501.5 78 501.5C76.067 501.5 74.5 499.933 74.5 498C74.5 496.067 76.067 494.5 78 494.5C79.933 494.5 81.5 496.067 81.5 498Z" fill="#D81C22" stroke="#D81C22"/>
<path opacity="0.2" d="M78 510C84.6274 510 90 504.627 90 498C90 491.372 84.6274 486 78 486C71.3726 486 66 491.372 66 498C66 504.627 71.3726 510 78 510Z" stroke="#D81C22" stroke-width="2"/>
<g opacity="0.3">
<path d="M249 99.0005L249 -101Z" fill="black"/>
<path d="M249 99.0005L249 -101" stroke="#D81C22" stroke-width="3" stroke-dasharray="8 4"/>
</g>
<path opacity="0.4" d="M249 91.0005C244.582 91.0005 241 94.5822 241 99.0005C241 103.419 244.582 107 249 107C253.418 107 257 103.419 257 99.0005C257 94.5822 253.418 91.0005 249 91.0005Z" fill="#D81C22"/>
<path opacity="0.8" d="M249 95.0005C246.791 95.0005 245 96.7913 245 99.0005C245 101.21 246.791 103 249 103C251.209 103 253 101.21 253 99.0005C253 96.7913 251.209 95.0005 249 95.0005Z" fill="#D81C22"/>
<path opacity="0.2" d="M249 87C242.373 87 237 92.3726 237 99C237 105.627 242.373 111 249 111C255.627 111 261 105.627 261 99C261 92.3726 255.627 87 249 87Z" stroke="#D81C22" stroke-width="2"/>
<g opacity="0.3">
<path d="M273 123L273 -77Z" fill="black"/>
<path d="M273 123L273 -77" stroke="#019E3F" stroke-width="3" stroke-dasharray="8 4"/>
</g>
<path opacity="0.4" d="M265.5 123C265.5 118.858 268.858 115.5 273 115.5C277.142 115.5 280.5 118.858 280.5 123C280.5 127.142 277.142 130.5 273 130.5C268.858 130.5 265.5 127.142 265.5 123Z" fill="#019E3F" stroke="#019E3F"/>
<path opacity="0.8" d="M269.5 123C269.5 121.067 271.067 119.5 273 119.5C274.933 119.5 276.5 121.067 276.5 123C276.5 124.933 274.933 126.5 273 126.5C271.067 126.5 269.5 124.933 269.5 123Z" fill="#019E3F" stroke="#019E3F"/>
<path opacity="0.2" d="M273 111C266.373 111 261 116.373 261 123C261 129.627 266.373 135 273 135C279.627 135 285 129.627 285 123C285 116.373 279.627 111 273 111Z" fill="#019E3F" stroke="#019E3F" stroke-width="2"/>
<g opacity="0.3">
<path d="M297 147L297 -53Z" fill="black"/>
<path d="M297 147L297 -53" stroke="#D81C22" stroke-width="3" stroke-dasharray="8 4"/>
</g>
<path opacity="0.4" d="M289.5 147C289.5 142.858 292.858 139.5 297 139.5C301.142 139.5 304.5 142.858 304.5 147C304.5 151.142 301.142 154.5 297 154.5C292.858 154.5 289.5 151.142 289.5 147Z" fill="#D81C22" stroke="#D81C22"/>
<path opacity="0.8" d="M293.5 147C293.5 145.067 295.067 143.5 297 143.5C298.933 143.5 300.5 145.067 300.5 147C300.5 148.933 298.933 150.5 297 150.5C295.067 150.5 293.5 148.933 293.5 147Z" fill="#D81C22" stroke="#D81C22"/>
<path opacity="0.2" d="M297 135C290.373 135 285 140.373 285 147C285 153.627 290.373 159 297 159C303.627 159 309 153.627 309 147C309 140.373 303.627 135 297 135Z" fill="#D81C22" stroke="#D81C22" stroke-width="2"/>
</g>
<defs>
<clipPath id="clip0_1_894">
<rect width="320" height="568" fill="white"/>
</clipPath>
</defs>
</svg>
